<?xml version="1.0" standalone="no"?>
<!DOCTYPE svg PUBLIC "-//W3C//DTD SVG 20010904//EN"
 "http://www.w3.org/TR/2001/REC-SVG-20010904/DTD/svg10.dtd">
<svg version="1.0" xmlns="http://www.w3.org/2000/svg"
 width="500.000000pt" height="500.000000pt" viewBox="0 0 500.000000 500.000000"
 preserveAspectRatio="xMidYMid meet">
<metadata>
Created by potrace 1.14, written by Peter Selinger 2001-2017
</metadata>
<g transform="translate(0.000000,500.000000) scale(0.100000,-0.100000)"
fill="#000000" stroke="none">
<path d="M4011 4941 c-37 -88 -234 -185 -556 -275 -134 -38 -197 -53 -400 -94
-329 -67 -768 -136 -1315 -207 -69 -8 -154 -20 -190 -25 -36 -5 -119 -16 -185
-25 -199 -26 -382 -61 -402 -77 -10 -8 -13 -137 -13 -584 l0 -574 22 -14 c23
-15 219 -50 478 -86 319 -44 538 -72 595 -77 60 -5 92 -18 64 -27 -8 -2 -57
-9 -109 -15 -93 -12 -150 -19 -460 -61 -398 -53 -551 -80 -576 -101 -20 -16
-21 -1151 -2 -1166 28 -22 205 -54 543 -98 66 -9 152 -20 190 -25 39 -5 124
-17 190 -25 66 -9 140 -19 165 -22 25 -3 54 -9 65 -13 24 -9 16 -11 -175 -35
-338 -44 -697 -93 -795 -110 -135 -24 -149 -27 -173 -41 l-22 -14 0 -565 c0
-310 3 -566 8 -569 4 -2 34 2 67 10 64 15 97 20 325 53 156 22 227 32 415 57
214 28 678 94 735 104 30 5 111 19 180 30 185 31 213 36 353 64 574 115 897
238 978 370 18 29 19 61 19 639 0 509 -2 613 -14 636 -17 32 -86 97 -122 113
-31 14 -31 32 0 46 36 16 105 81 122 113 21 42 21 1226 0 1268 -17 32 -86 97
-122 113 -35 16 -29 29 29 66 29 18 64 50 80 72 l27 38 -2 584 c-3 515 -5 579
-17 549z"/>
</g>
</svg>
